<svg xmlns="http://www.w3.org/2000/svg" data-name="Layer 1" viewBox="0 0 100 100" x="0px" y="0px"><defs><style>.cls-1,.cls-2{fill:none;stroke:#000;stroke-width:5px;}.cls-1{stroke-linejoin:round;}.cls-2{stroke-miterlimit:10;}</style></defs><title>bots-04-5-18</title><polyline class="cls-1" points="27.9 57.3 11.77 57.29 11.77 72.52"></polyline><circle class="cls-1" cx="11.77" cy="77" r="6.27"></circle><polyline class="cls-1" points="70.89 59.08 87.02 59.08 87.02 43.85"></polyline><circle class="cls-1" cx="87.02" cy="39.38" r="6.27"></circle><rect class="cls-2" x="25.21" y="7.13" width="49.27" height="32.25" rx="6.56" ry="6.56"></rect><rect x="18.04" y="16.53" width="4.93" height="11.65" rx="2.37" ry="2.37" transform="translate(-1.85 42.86) rotate(-90)"></rect><circle cx="38.2" cy="21.91" r="3.14"></circle><circle cx="61.04" cy="22.36" r="3.14"></circle><rect x="77.16" y="16.53" width="4.93" height="11.65" rx="2.37" ry="2.37" transform="translate(57.27 101.98) rotate(-90)"></rect><path class="cls-2" d="M54.77,94H44.91A16.12,16.12,0,0,1,28.79,77.9V51a146.11,146.11,0,0,1,16.12-.9h9.85a146.11,146.11,0,0,1,16.12.9V77.9A16.12,16.12,0,0,1,54.77,94Z"></path><circle cx="49.39" cy="61.98" r="3.14"></circle><circle cx="49.39" cy="71.83" r="3.14"></circle><circle cx="49.39" cy="81.69" r="3.14"></circle></svg>
